<svg width="25" height="25" viewBox="0 0 25 25" fill="none" xmlns="http://www.w3.org/2000/svg">
<path d="M15.9778 18.5353L15.978 18.5355C16.4223 18.9795 16.9442 19.3203 17.5127 19.545L14.3323 22.7255C13.2989 23.7588 11.6235 23.7588 10.5903 22.7255L10.5903 22.7255L7.49699 19.6323C8.14385 19.4118 8.73705 19.0447 9.23337 18.5486L9.23355 18.5484L12.6122 15.1696L15.9778 18.5353Z" stroke="white" stroke-width="2"/>
<path d="M17.5126 5.45496C16.9441 5.67964 16.4222 6.02041 15.9779 6.46448L15.9777 6.46468L12.612 9.83066L9.23352 6.45154L9.23329 6.45131C8.73701 5.95527 8.14386 5.58812 7.49705 5.3677L10.5902 2.27455L10.5902 2.27452C11.6234 1.24122 13.2988 1.24113 14.3323 2.27454C14.3323 2.27455 14.3323 2.27457 14.3324 2.27458L17.5126 5.45496ZM12.377 10.0657C12.3773 10.0654 12.3776 10.0651 12.378 10.0647L12.377 10.0657ZM12.8465 10.0652L12.8464 10.0651C12.8464 10.0651 12.8465 10.0651 12.8465 10.0652Z" stroke="white" stroke-width="2"/>
<mask id="path-3-inside-1_1_300" fill="white">
<path d="M23.3933 9.92191L20.6304 7.15895C20.5696 7.18331 20.5037 7.19852 20.4341 7.19852H19.1779C18.5284 7.19852 17.8926 7.46195 17.4337 7.92121L13.8341 11.5209C13.4972 11.8578 13.0546 12.0263 12.6124 12.0263C12.1697 12.0263 11.7274 11.8578 11.3907 11.5213L7.77747 7.90805C7.31854 7.44869 6.68277 7.18537 6.0333 7.18537H4.48863C4.42274 7.18537 4.36118 7.16984 4.30306 7.14795L1.52911 9.92191C0.105205 11.3458 0.105205 13.6543 1.52911 15.0782L4.30294 17.852C4.36117 17.8301 4.42274 17.8146 4.48863 17.8146H6.0333C6.68277 17.8146 7.31854 17.5513 7.77747 17.092L11.3903 13.4792C12.0434 12.8267 13.1817 12.8264 13.8341 13.4795L17.4337 17.0789C17.8926 17.5381 18.5284 17.8015 19.1779 17.8015H20.4341C20.5037 17.8015 20.5696 17.8167 20.6304 17.8411L23.3933 15.0782C24.8171 13.6543 24.8171 11.3458 23.3933 9.92189"/>
</mask>
<path d="M20.6304 7.15895L22.0446 5.74474L21.1116 4.81172L19.8867 5.30236L20.6304 7.15895ZM17.4337 7.92121L18.848 9.3354L18.8484 9.33492L17.4337 7.92121ZM13.8341 11.5209L15.2483 12.9351L15.2483 12.9351L13.8341 11.5209ZM11.3907 11.5213L9.97646 12.9355L9.97692 12.9359L11.3907 11.5213ZM7.77747 7.90805L6.36259 9.3216L6.36325 9.32226L7.77747 7.90805ZM4.30306 7.14795L5.00801 5.27631L3.80092 4.82166L2.88884 5.73374L4.30306 7.14795ZM1.52911 9.92191L2.94333 11.3361L2.94333 11.3361L1.52911 9.92191ZM1.52911 15.0782L2.94333 13.664L2.94333 13.664L1.52911 15.0782ZM4.30294 17.852L2.88873 19.2662L3.80011 20.1776L5.00659 19.7242L4.30294 17.852ZM7.77747 17.092L6.36325 15.6778L6.36275 15.6783L7.77747 17.092ZM11.3903 13.4792L9.97671 12.0644L9.97612 12.0649L11.3903 13.4792ZM13.8341 13.4795L12.4192 14.893L12.4199 14.8937L13.8341 13.4795ZM17.4337 17.0789L18.8484 15.6652L18.8479 15.6646L17.4337 17.0789ZM20.6304 17.8411L19.8861 19.6975L21.1113 20.1887L22.0446 19.2553L20.6304 17.8411ZM23.3933 15.0782L24.8075 16.4924L24.8076 16.4923L23.3933 15.0782ZM24.8075 8.50769L22.0446 5.74474L19.2162 8.57316L21.9791 11.3361L24.8075 8.50769ZM19.8867 5.30236C20.0217 5.24827 20.2085 5.19852 20.4341 5.19852V9.19852C20.7988 9.19852 21.1174 9.11836 21.3741 9.01554L19.8867 5.30236ZM20.4341 5.19852H19.1779V9.19852H20.4341V5.19852ZM19.1779 5.19852C17.9979 5.19852 16.8532 5.67273 16.019 6.50749L18.8484 9.33492C18.9321 9.25118 19.0589 9.19852 19.1779 9.19852V5.19852ZM16.0195 6.50702L12.4199 10.1067L15.2483 12.9351L18.848 9.3354L16.0195 6.50702ZM12.4199 10.1067C12.4742 10.0524 12.5473 10.0263 12.6124 10.0263V14.0263C13.5619 14.0263 14.5203 13.6632 15.2483 12.9351L12.4199 10.1067ZM12.6124 10.0263C12.677 10.0263 12.7502 10.0524 12.8044 10.1066L9.97692 12.9359C10.7047 13.6632 11.6625 14.0263 12.6124 14.0263V10.0263ZM12.8049 10.107L9.19168 6.49384L6.36325 9.32226L9.97646 12.9355L12.8049 10.107ZM9.19234 6.4945C8.35796 5.65933 7.21306 5.18537 6.0333 5.18537V9.18537C6.15248 9.18537 6.27912 9.23805 6.36259 9.3216L9.19234 6.4945ZM6.0333 5.18537H4.48863V9.18537H6.0333V5.18537ZM4.48863 5.18537C4.74027 5.18537 4.92594 5.2454 5.00801 5.27631L3.5981 9.01959C3.79642 9.09429 4.10521 9.18537 4.48863 9.18537V5.18537ZM2.88884 5.73374L0.114895 8.5077L2.94333 11.3361L5.71727 8.56216L2.88884 5.73374ZM0.114896 8.5077C-2.09006 10.7127 -2.09006 14.2874 0.114896 16.4924L2.94333 13.664C2.30047 13.0211 2.30047 11.979 2.94333 11.3361L0.114896 8.5077ZM0.114895 16.4924L2.88873 19.2662L5.71716 16.4378L2.94333 13.664L0.114895 16.4924ZM5.00659 19.7242C4.92575 19.7545 4.74032 19.8146 4.48863 19.8146V15.8146C4.10516 15.8146 3.7966 15.9057 3.5993 15.9799L5.00659 19.7242ZM4.48863 19.8146H6.0333V15.8146H4.48863V19.8146ZM6.0333 19.8146C7.21304 19.8146 8.35785 19.3407 9.19218 18.5057L6.36275 15.6783C6.27923 15.7619 6.1525 15.8146 6.0333 15.8146V19.8146ZM9.19168 18.5062L12.8046 14.8934L9.97612 12.0649L6.36325 15.6778L9.19168 18.5062ZM12.804 14.8939C12.7157 14.9822 12.6358 14.9897 12.6124 14.9897C12.5889 14.9897 12.5082 14.9821 12.4192 14.893L15.249 12.0659C13.8148 10.6303 11.41 10.6322 9.97671 12.0644L12.804 14.8939ZM12.4199 14.8937L16.0195 18.4931L18.8479 15.6646L15.2483 12.0652L12.4199 14.8937ZM16.019 18.4926C16.8532 19.3273 17.9979 19.8015 19.1779 19.8015V15.8015C19.0589 15.8015 18.9321 15.7489 18.8484 15.6652L16.019 18.4926ZM19.1779 19.8015H20.4341V15.8015H19.1779V19.8015ZM20.4341 19.8015C20.2088 19.8015 20.0219 19.7519 19.8861 19.6975L21.3746 15.9848C21.1172 15.8816 20.7985 15.8015 20.4341 15.8015V19.8015ZM22.0446 19.2553L24.8075 16.4924L21.9791 13.664L19.2162 16.4269L22.0446 19.2553ZM24.8076 16.4923C27.0124 14.2874 27.0124 10.7127 24.8076 8.50773L21.9791 11.3361C22.6219 11.9789 22.6219 13.0211 21.9791 13.664L24.8076 16.4923Z" fill="white" mask="url(#path-3-inside-1_1_300)"/>
</svg>
